<svg width="39" height="41" viewBox="0 0 39 41" fill="none" xmlns="http://www.w3.org/2000/svg">
<path d="M0.347043 29.2303C2.38017 33.2395 5.70465 36.4468 9.78415 38.3349C13.8636 40.223 18.4603 40.6817 22.8324 39.637C27.2046 38.5923 31.0973 36.1052 33.8826 32.5768C36.668 29.0485 38.1834 24.6847 38.1845 20.1895C38.1856 15.6942 36.6723 11.3297 33.8887 7.8C31.1051 4.27029 27.2136 1.78125 22.842 0.734427C18.4703 -0.312395 13.8735 0.144052 9.79306 2.03013C5.71264 3.91621 2.38658 7.12193 0.351485 11.1301L1.5998 11.7639C3.49244 8.03631 6.58567 5.05499 10.3805 3.30094C14.1753 1.54689 18.4503 1.12239 22.516 2.09593C26.5816 3.06948 30.2007 5.38429 32.7894 8.66692C35.3782 11.9495 36.7855 16.0086 36.7845 20.1891C36.7835 24.3697 35.3741 28.428 32.7838 31.7094C30.1934 34.9907 26.5732 37.3038 22.5071 38.2753C18.441 39.2469 14.1661 38.8203 10.3722 37.0644C6.57824 35.3084 3.48647 32.3256 1.59567 28.5971L0.347043 29.2303Z" fill="#999999"/>
</svg>
