<svg width="32" height="32" viewBox="0 0 32 32" fill="none" xmlns="http://www.w3.org/2000/svg">
<circle cx="16" cy="16" r="15.5" stroke="#222222"/>
<g clip-path="url(#clip0_20_355)">
<path d="M8.49219 11.6088V20.3755C8.49219 22.0968 9.88754 23.4922 11.6088 23.4922H20.3755C22.0968 23.4922 23.4922 22.0968 23.4922 20.3755V11.6088C23.4922 9.88754 22.0968 8.49219 20.3755 8.49219H11.6088C9.88754 8.49219 8.49219 9.88754 8.49219 11.6088ZM17.5811 20.2422C13.8813 21.5188 10.4656 18.103 11.7421 14.4033C12.1722 13.1563 13.1562 12.1722 14.4032 11.7421C18.103 10.4656 21.5188 13.8813 20.2422 17.5812C19.8121 18.8281 18.8281 19.8121 17.5811 20.2422ZM21.1971 11.4565C21.1382 11.7647 20.8831 11.9441 20.6193 11.9441C20.4587 11.9441 20.295 11.8778 20.1696 11.734C20.1586 11.7213 20.1482 11.7076 20.1391 11.6934C20.0097 11.4957 20.0057 11.2607 20.1156 11.0702C20.1935 10.9354 20.3191 10.8391 20.4695 10.7988C20.6197 10.7583 20.7768 10.7791 20.9115 10.857C21.1021 10.9669 21.216 11.1724 21.203 11.4081C21.2021 11.4242 21.2002 11.4406 21.1971 11.4565Z" fill="#222222"/>
<path d="M15.9921 12.3482C13.9827 12.3482 12.3481 13.9828 12.3481 15.9922C12.3481 18.0016 13.9827 19.6362 15.9921 19.6362C18.0015 19.6362 19.6361 18.0016 19.6361 15.9922C19.6361 13.9828 18.0015 12.3482 15.9921 12.3482Z" fill="#222222"/>
</g>
<defs>
<clipPath id="clip0_20_355">
<rect width="16" height="16" fill="white" transform="translate(8 8)"/>
</clipPath>
</defs>
</svg>
