<svg width="32" height="32" viewBox="0 0 32 32" fill="none" xmlns="http://www.w3.org/2000/svg">
<circle cx="16" cy="16" r="15.5" stroke="#222222"/>
<g clip-path="url(#clip0_20_371)">
<path d="M23.8574 19.5781C23.8144 19.5061 23.5484 18.928 22.2683 17.7399C20.9282 16.4958 21.1082 16.6978 22.7223 14.5467C23.7054 13.2366 24.0984 12.4365 23.9754 12.0945C23.8584 11.7685 23.1353 11.8545 23.1353 11.8545L20.7311 11.8685C20.7311 11.8685 20.5531 11.8445 20.4201 11.9235C20.2911 12.0015 20.2081 12.1815 20.2081 12.1815C20.2081 12.1815 19.8271 13.1956 19.319 14.0576C18.248 15.8768 17.8189 15.9728 17.6439 15.8598C17.2369 15.5968 17.3389 14.8017 17.3389 14.2377C17.3389 12.4745 17.6059 11.7395 16.8179 11.5495C16.5558 11.4865 16.3638 11.4445 15.6948 11.4375C14.8367 11.4284 14.1097 11.4405 13.6986 11.6415C13.4246 11.7755 13.2136 12.0745 13.3426 12.0915C13.5016 12.1125 13.8616 12.1885 14.0527 12.4485C14.2997 12.7836 14.2907 13.5376 14.2907 13.5376C14.2907 13.5376 14.4327 15.6128 13.9597 15.8708C13.6346 16.0478 13.1896 15.6868 12.2345 14.0356C11.7455 13.1906 11.3755 12.2555 11.3755 12.2555C11.3755 12.2555 11.3045 12.0815 11.1775 11.9885C11.0234 11.8755 10.8074 11.8395 10.8074 11.8395L8.52126 11.8535C8.52126 11.8535 8.17824 11.8635 8.05223 12.0125C7.94022 12.1455 8.04323 12.4195 8.04323 12.4195C8.04323 12.4195 9.83336 16.6068 11.8595 18.718C13.7186 20.6531 15.8288 20.5261 15.8288 20.5261H16.7849C16.7849 20.5261 17.0739 20.4941 17.2209 20.3351C17.3569 20.1891 17.3519 19.9151 17.3519 19.9151C17.3519 19.9151 17.3329 18.632 17.9289 18.443C18.516 18.257 19.27 19.6831 20.0691 20.2321C20.6731 20.6471 21.1322 20.5561 21.1322 20.5561L23.2693 20.5261C23.2693 20.5261 24.3874 20.4571 23.8574 19.5781Z" fill="#222222"/>
</g>
<defs>
<clipPath id="clip0_20_371">
<rect width="16" height="16" fill="white" transform="translate(8 8)"/>
</clipPath>
</defs>
</svg>
